<?xml version="1.0" encoding="UTF-8" standalone="no"?>
<svg
   xmlns:dc="http://purl.org/dc/elements/1.1/"
   xmlns:cc="http://creativecommons.org/ns#"
   xmlns:rdf="http://www.w3.org/1999/02/22-rdf-syntax-ns#"
   xmlns:svg="http://www.w3.org/2000/svg"
   xmlns="http://www.w3.org/2000/svg"
   xmlns:sodipodi="http://sodipodi.sourceforge.net/DTD/sodipodi-0.dtd"
   xmlns:inkscape="http://www.inkscape.org/namespaces/inkscape"
   width="144.083"
   height="144"
   version="1.1"
   id="svg6"
   sodipodi:docname="facebook-active.svg"
   inkscape:version="1.0.2 (e86c870879, 2021-01-15)">
  <metadata
     id="metadata12">
    <rdf:RDF>
      <cc:Work
         rdf:about="">
        <dc:format>image/svg+xml</dc:format>
        <dc:type
           rdf:resource="http://purl.org/dc/dcmitype/StillImage" />
      </cc:Work>
    </rdf:RDF>
  </metadata>
  <defs
     id="defs10" />
  <sodipodi:namedview
     pagecolor="#ffffff"
     bordercolor="#666666"
     borderopacity="1"
     objecttolerance="10"
     gridtolerance="10"
     guidetolerance="10"
     inkscape:pageopacity="0"
     inkscape:pageshadow="2"
     inkscape:window-width="1366"
     inkscape:window-height="693"
     id="namedview8"
     showgrid="false"
     inkscape:zoom="3.6736111"
     inkscape:cx="72.041496"
     inkscape:cy="72"
     inkscape:window-x="0"
     inkscape:window-y="0"
     inkscape:window-maximized="1"
     inkscape:current-layer="svg6" />
  <path
     d="M72.041 11.166c-33.543 0-60.833 27.29-60.833 60.834 0 33.545 27.29 60.834 60.833 60.834 33.544 0 60.835-27.289 60.835-60.834-.001-33.544-27.292-60.834-60.835-60.834zm0 115.668c-30.235 0-54.833-24.598-54.833-54.834 0-30.235 24.598-54.834 54.833-54.834S126.876 41.765 126.876 72c-.001 30.236-24.6 54.834-54.835 54.834z"
     id="path2"
     style="fill-opacity:1;fill:#00709d;" />
  <path
     d="M90.792 36.304H77.596a.877.877 0 0 0-.09.004c-13.323.042-15.063 9.345-15.07 17.476a1.014 1.014 0 0 0-.028.235v5.708H53.29a1 1 0 0 0-1 1v14.077a1 1 0 0 0 1 1h9.118v30.891a1 1 0 0 0 1 1h13.307a1 1 0 0 0 1-1v-30.89h13.076a1 1 0 0 0 1-1V60.728a1 1 0 0 0-1-1H76.715v-7.567h14.076a1 1 0 0 0 1-1V37.304a.999.999 0 0 0-.999-1z"
     id="path4"
     style="fill:#00709d;fill-opacity:1" />
</svg>
